<mxfile host="app.diagrams.net" modified="2020-08-24T14:08:55.043Z" agent="5.0 (Windows NT 10.0; Win64; x64) AppleWebKit/537.36 (KHTML, like Gecko) Chrome/84.0.4147.135 Safari/537.36" etag="56xiw87eA_Bb4HhD5HtX" version="13.6.4" type="github">
  <diagram id="vSGuEcOI4eMmMhH62Hi4" name="Page-1">
    <mxGraphModel dx="868" dy="450" grid="1" gridSize="10" guides="1" tooltips="1" connect="1" arrows="1" fold="1" page="1" pageScale="1" pageWidth="850" pageHeight="1100" math="0" shadow="0">
      <root>
        <mxCell id="0" />
        <mxCell id="1" parent="0" />
        <mxCell id="dRUNZJUTJLI50pY9Gpoa-1" value="" style="ellipse;whiteSpace=wrap;html=1;aspect=fixed;" vertex="1" parent="1">
          <mxGeometry x="90" y="100" width="240" height="240" as="geometry" />
        </mxCell>
        <mxCell id="dRUNZJUTJLI50pY9Gpoa-2" value="" style="shape=flexArrow;endArrow=classic;html=1;shadow=1;" edge="1" parent="1" source="dRUNZJUTJLI50pY9Gpoa-1">
          <mxGeometry width="50" height="50" relative="1" as="geometry">
            <mxPoint x="400" y="260" as="sourcePoint" />
            <mxPoint x="580" y="263" as="targetPoint" />
          </mxGeometry>
        </mxCell>
        <mxCell id="dRUNZJUTJLI50pY9Gpoa-3" value="" style="shape=xor;whiteSpace=wrap;html=1;" vertex="1" parent="1">
          <mxGeometry x="570" y="175" width="180" height="175" as="geometry" />
        </mxCell>
      </root>
    </mxGraphModel>
  </diagram>
</mxfile>
